<svg xmlns="http://www.w3.org/2000/svg" width="1475" height="1710"><path fill="#fff" fill-rule="evenodd" d="M.1 889.4V614.5L738.2 0l736.6 614.5V866c-188.4 36.2-606.2 165.1-784.1 246-1.4.6-3.2.4-1.1-2.5C791.8 972 975 780.2 1139.7 644.6c1.1-.8 2-1.7 2.6-2.8.7-1.2 1.2-2.4 1.4-3.7.1-1.3.1-2.6-.3-3.8-.3-1.3-.9-2.5-1.7-3.5-22.3-28.7-104-133.7-129.3-163.9-4.4-5.2-7.8-8-15.3-6-239.6 63-768.2 285.1-997 428.5m244.2 452.8c-3.8-4.7-4.1-7.1.8-14.8 106.2-164.5 323.1-420.3 461.4-528.7 2.5-2 1.8-3.7-1.1-2.7C561.3 845.7 151.8 1031.4.2 1121.9v587.3h1474.6v-565.3c-201.4 36.1-803.3 224.9-1077 373.7-5 3.4-11.9 2.4-15.9-2.5z"/></svg>